<svg viewBox="0 0 1024 1024" xmlns="http://www.w3.org/2000/svg"><path fill="white" d="M392.501 580.223c-14.114-18.869-10.26-45.608 8.61-59.722s45.608-10.26 59.722 8.61c29.66 39.652 75.081 64.468 124.472 68.005s97.885-14.552 132.898-49.578l127.48-127.471c64.678-66.966 63.753-173.412-2.079-239.244s-172.278-66.757-238.803-2.511l-73.387 72.96c-16.711 16.614-43.726 16.535-60.34-0.176s-16.535-43.726 0.176-60.34l73.827-73.392c100.449-97.017 260.118-95.629 358.866 3.118s100.135 258.417 2.599 359.394l-127.995 127.995c-52.512 52.532-125.252 79.665-199.34 74.359s-142.218-42.529-186.708-102.007zM631.499 443.777c14.114 18.869 10.26 45.608-8.61 59.722s-45.608 10.26-59.722-8.61c-29.66-39.652-75.081-64.468-124.472-68.005s-97.885 14.552-132.898 49.578l-127.48 127.471c-64.678 66.966-63.753 173.412 2.079 239.244s172.278 66.757 238.715 2.599l72.96-72.96c16.662-16.662 43.677-16.662 60.34 0s16.662 43.677 0 60.34l-73.489 73.48c-100.449 97.017-260.118 95.629-358.866-3.118s-100.135-258.417-2.599-359.394l127.995-127.995c52.512-52.532 125.252-79.665 199.34-74.359s142.218 42.529 186.708 102.007z"/></svg>
